<svg xmlns="http://www.w3.org/2000/svg" xmlns:xlink="http://www.w3.org/1999/xlink" width="48" zoomAndPan="magnify" viewBox="0 0 36 36.000001" height="48" preserveAspectRatio="xMidYMid meet" version="1.0"><defs><g/><clipPath id="a3651e59af"><path d="M 0.488281 0 L 35.511719 0 L 35.511719 35.027344 L 0.488281 35.027344 Z M 0.488281 0 " clip-rule="nonzero"/></clipPath><clipPath id="3ec62d8762"><path d="M 1.945312 1.460938 L 17.269531 1.460938 L 17.269531 16.785156 L 1.945312 16.785156 Z M 1.945312 1.460938 " clip-rule="nonzero"/></clipPath><clipPath id="7210bbcb48"><path d="M 1.945312 18.242188 L 17.269531 18.242188 L 17.269531 33.566406 L 1.945312 33.566406 Z M 1.945312 18.242188 " clip-rule="nonzero"/></clipPath><clipPath id="96e65cdf69"><path d="M 18.878906 1.460938 L 34.203125 1.460938 L 34.203125 16.785156 L 18.878906 16.785156 Z M 18.878906 1.460938 " clip-rule="nonzero"/></clipPath><clipPath id="c0116dfdca"><path d="M 18.878906 18.242188 L 34.203125 18.242188 L 34.203125 33.566406 L 18.878906 33.566406 Z M 18.878906 18.242188 " clip-rule="nonzero"/></clipPath></defs><g clip-path="url(#a3651e59af)"><path fill="#ffffff" d="M 0.488281 0 L 35.511719 0 L 35.511719 42.324219 L 0.488281 42.324219 Z M 0.488281 0 " fill-opacity="1" fill-rule="nonzero"/><path fill="#ffffff" d="M 0.488281 0 L 35.511719 0 L 35.511719 35.027344 L 0.488281 35.027344 Z M 0.488281 0 " fill-opacity="1" fill-rule="nonzero"/><path fill="#000000" d="M 0.488281 0 L 35.511719 0 L 35.511719 35.027344 L 0.488281 35.027344 Z M 0.488281 0 " fill-opacity="1" fill-rule="nonzero"/></g><g clip-path="url(#3ec62d8762)"><path fill="#6aaa64" d="M 1.945312 1.460938 L 17.269531 1.460938 L 17.269531 16.785156 L 1.945312 16.785156 L 1.945312 1.460938 " fill-opacity="1" fill-rule="nonzero"/></g><g clip-path="url(#7210bbcb48)"><path fill="#7c8ca2" d="M 1.949219 18.242188 L 17.265625 18.242188 L 17.265625 33.566406 L 1.949219 33.566406 L 1.949219 18.242188 " fill-opacity="1" fill-rule="nonzero"/></g><g clip-path="url(#96e65cdf69)"><path fill="#c9b458" d="M 18.878906 1.460938 L 34.203125 1.460938 L 34.203125 16.785156 L 18.878906 16.785156 L 18.878906 1.460938 " fill-opacity="1" fill-rule="nonzero"/></g><g clip-path="url(#c0116dfdca)"><path fill="#6aaa64" d="M 18.878906 18.242188 L 34.203125 18.242188 L 34.203125 33.566406 L 18.878906 33.566406 L 18.878906 18.242188 " fill-opacity="1" fill-rule="nonzero"/></g><g fill="#ffffff" fill-opacity="1"><g transform="translate(6.050675, 14.010813)"><g><path d="M 2.765625 -1.546875 L 6.84375 -1.546875 L 6.84375 0 L 0.828125 0 L 0.828125 -9.34375 L 2.765625 -9.34375 Z M 2.765625 -1.546875 "/></g></g></g><g fill="#ffffff" fill-opacity="1"><g transform="translate(22.371095, 30.791844)"><g><path d="M 2.765625 -3.296875 L 2.765625 0 L 0.828125 0 L 0.828125 -9.34375 L 4.484375 -9.34375 C 5.179688 -9.34375 5.796875 -9.210938 6.328125 -8.953125 C 6.859375 -8.703125 7.265625 -8.335938 7.546875 -7.859375 C 7.835938 -7.390625 7.984375 -6.851562 7.984375 -6.25 C 7.984375 -5.332031 7.671875 -4.609375 7.046875 -4.078125 C 6.421875 -3.554688 5.554688 -3.296875 4.453125 -3.296875 Z M 2.765625 -4.84375 L 4.484375 -4.84375 C 4.984375 -4.84375 5.367188 -4.960938 5.640625 -5.203125 C 5.910156 -5.441406 6.046875 -5.785156 6.046875 -6.234375 C 6.046875 -6.691406 5.910156 -7.0625 5.640625 -7.34375 C 5.367188 -7.625 5 -7.769531 4.53125 -7.78125 L 2.765625 -7.78125 Z M 2.765625 -4.84375 "/></g></g></g></svg>